<?xml version="1.0" encoding="UTF-8"?>
<svg width="800px" height="158px" viewBox="0 0 800 158" version="1.1" xmlns="http://www.w3.org/2000/svg" xmlns:xlink="http://www.w3.org/1999/xlink">
    <title>Project-Management-Logo</title>
    <defs>
        <linearGradient x1="68%" y1="2.25860997e-13%" x2="32%" y2="100%" id="linearGradient-1">
            <stop stop-color="#2B9AF3" offset="0%"></stop>
            <stop stop-color="#73BCF7" stop-opacity="0.502212631" offset="100%"></stop>
        </linearGradient>
    </defs>
    <g id="Project-Management-Logo" stroke="none" stroke-width="1" fill="none" fill-rule="evenodd">
        <!-- Logo Group with Checklist Icon -->
        <g id="Logo" transform="translate(0.000000, 0.000000)">
            <path d="M61.826087,0 L158,0 L158,96.173913 L147.695652,96.173913 C100.271201,96.173913 61.826087,57.7287992 61.826087,10.3043478 L61.826087,0 Z" id="Rectangle-Copy-17" fill="#0066CC"></path>
            <path d="M158,3.43478261 L65.2608696,158 L138,158 C149.045695,158 158,149.045695 158,138 L158,3.43478261 Z" id="Path-2" fill="url(#linearGradient-1)"></path>
            <path d="M123.652174,-30.9130435 L30.9130435,123.652174 L103.652174,123.652174 C114.697869,123.652174 123.652174,114.697869 123.652174,103.652174 L123.652174,-30.9130435 Z" id="Path-2" fill="url(#linearGradient-1)" transform="translate(77.282609, 46.369565) scale(1, -1) rotate(90.000000) translate(-77.282609, -46.369565)"></path>
            <!-- Checklist Icon -->
            <g id="Checklist-Icon" transform="translate(20, 20)" fill="#FFFFFF" stroke="#151515" stroke-width="2">
                <rect x="0" y="0" width="30" height="40" rx="3"></rect>
                <path d="M8,10 L12,14 L18,8"></path>
                <path d="M8,20 L12,24 L18,18"></path>
                <path d="M8,30 L12,34 L18,28"></path>
            </g>
        </g>
        <!-- Text: Project Management -->
        <g id="Text" transform="translate(206.000000, 45.750000)">
            <text x="0" y="60" font-family="Helvetica, Arial, sans-serif" font-size="50" font-weight="bold" fill="#151515">Project Management</text>
        </g>
    </g>
</svg>